<svg xmlns="http://www.w3.org/2000/svg" viewBox="0 0 11 5" width="440" height="200" role="img" aria-labelledby="title desc" shape-rendering="crispEdges">
  <title id="title">qol pixel logo</title>
  <desc id="desc">Pixel art logo spelling qol with three-pixel-wide letters and one-pixel gaps.</desc>
  <g fill="#000000">
    <!-- q: x 0-2 -->
    <rect x="0" y="1" width="1" height="1"/>
    <rect x="1" y="1" width="1" height="1"/>
    <rect x="2" y="1" width="1" height="1"/>
    <rect x="0" y="2" width="1" height="1"/>
    <rect x="2" y="2" width="1" height="1"/>
    <rect x="0" y="3" width="1" height="1"/>
    <rect x="1" y="3" width="1" height="1"/>
    <rect x="2" y="3" width="1" height="1"/>
    <rect x="2" y="4" width="1" height="1"/>

    <!-- o: x 4-6 -->
    <rect x="4" y="1" width="1" height="1"/>
    <rect x="5" y="1" width="1" height="1"/>
    <rect x="6" y="1" width="1" height="1"/>
    <rect x="4" y="2" width="1" height="1"/>
    <rect x="6" y="2" width="1" height="1"/>
    <rect x="4" y="3" width="1" height="1"/>
    <rect x="5" y="3" width="1" height="1"/>
    <rect x="6" y="3" width="1" height="1"/>

    <!-- l: x 8-10 -->
    <rect x="8" y="0" width="1" height="1"/>
    <rect x="8" y="1" width="1" height="1"/>
    <rect x="8" y="2" width="1" height="1"/>
    <rect x="8" y="3" width="1" height="1"/>
    <rect x="9" y="3" width="1" height="1"/>
    <rect x="10" y="3" width="1" height="1"/>
  </g>
</svg>
